nColumns=19
nRows=66
DataType=double
version=3
OpenSimVersion=4.1
endheader
time	ground_force_calcn_r_vx	ground_force_calcn_r_vy	ground_force_calcn_r_vz	ground_force_calcn_r_px	ground_force_calcn_r_py	ground_force_calcn_r_pz	ground_force_calcn_r_mx	ground_force_calcn_r_my	ground_force_calcn_r_mz	ground_force_calcn_l_vx	ground_force_calcn_l_vy	ground_force_calcn_l_vz	ground_force_calcn_l_px	ground_force_calcn_l_py	ground_force_calcn_l_pz	ground_force_calcn_l_mx	ground_force_calcn_l_my	ground_force_calcn_l_mz
0.03	0	0	0	0	0	0	0	0	0	-178.701	1142.43	-183.215	0.849183	0	-0.37538	-2.39695	15.3237	-2.4575
0.04	0	0	0	0	0	0	0	0	0	-152.554	1263.92	-18.4137	0.830889	0	-0.341846	-0.502735	4.16519	-0.0606816
0.05	0	0	0	0	0	0	0	0	0	-109.913	1355.02	52.6522	0.807882	0	-0.32728	0.39497	-4.86922	-0.189204
0.06	0	0	0	0	0	0	0	0	0	-61.4951	1396.15	35.4433	0.779501	0	-0.325935	0.326761	-7.41862	-0.188332
0.07	0	0	0	0	0	0	0	0	0	-21.0474	1397.84	17.1923	0.747593	0	-0.330243	0.0561156	-3.72685	-0.0458375
0.08	0	0	0	0	0	0	0	0	0	13.3208	1375.39	24.8224	0.714032	0	-0.334425	0.0180926	1.86809	0.0337143
0.09	0	0	0	0	0	0	0	0	0	49.9418	1331.21	29.0556	0.679822	0	-0.335806	0.171763	4.57835	0.0999295
0.1	0	0	0	0	0	0	0	0	0	88.1099	1257.87	21.3061	0.644866	0	-0.334567	0.199941	2.85439	0.0483481
0.11	0	0	0	0	0	0	0	0	0	126.374	1145.67	5.88514	0.607798	0	-0.332184	-0.114812	-1.04085	-0.00534668
0.12	0	0	0	0	0	0	0	0	0	166.998	985.721	-13.4624	0.566892	0	-0.329863	-0.592497	-3.49727	0.0477636
0.13	0	0	0	0	0	0	0	0	0	198.074	780.084	-26.103	0.521114	0	-0.32788	-0.662622	-2.60963	0.087323
0.14	0	0	0	0	0	0	0	0	0	191.984	559.261	-30.2718	0.470053	0	-0.325506	0.184845	0.538464	-0.0291461
0.15	0	0	0	0	0	0	0	0	0	145.817	361.335	-29.9988	0.410974	0	-0.322292	1.38217	3.42504	-0.284354
0.16	0	0	0	0	0	0	0	0	0	94.7395	206.252	-22.1652	0.327451	0	-0.319008	1.96324	4.27406	-0.459319
0.17	0	0	0	0	0	0	0	0	0	56.4846	102.028	-9.33787	0.129487	0	-0.317261	1.67916	3.03305	-0.277593
0.18	0	0	0	0	0	0	0	0	0	28.1441	44.2643	-1.49073	-2.23311	0	-0.247715	0.869577	1.36765	-0.0460595
0.19	0	0	0	0	0	0	0	0	0	8.10798	18.1147	-2.24872	-0.00166636	0	-0.000974517	-0	-0	0
0.2	0	0	0	0	0	0	0	0	0	-1.78317	10.3882	-4.05915	-0.00166636	0	-0.000974538	-2.73871e-19	1.59549e-18	-6.23431e-19
0.21	0	0	0	0	0	0	0	0	0	0	0	0	0	0	0	0	0	0
0.22	0	0	0	0	0	0	0	0	0	0	0	0	0	0	0	0	0	0
0.23	0	0	0	0	0	0	0	0	0	0	0	0	0	0	0	0	0	0
0.24	0	0	0	0	0	0	0	0	0	0	0	0	0	0	0	0	0	0
0.25	-0.21625	21.9802	-2.21875	-0.00166632	0	-0.000974701	3.39596e-20	-3.45174e-18	3.48429e-19	0	0	0	0	0	0	0	0	0
0.26	-2.92479	83.3462	-4.90951	0.846605	0	-0.205169	-0.046584	1.32748	-0.0781954	0	0	0	0	0	0	0	0	0
0.27	-8.84721	292.872	-16.4623	0.966499	0	-0.260097	-0.0071232	0.235802	-0.0132544	0	0	0	0	0	0	0	0	0
0.28	-23.9186	740.211	-19.5982	0.971386	0	-0.262299	-0.0616612	1.90824	-0.0505234	0	0	0	0	0	0	0	0	0
0.29	-71.2462	1232.39	19.9551	0.972471	0	-0.263049	-0.271504	4.69636	0.0760446	0	0	0	0	0	0	0	0	0
0.3	-156.748	1398.65	81.2807	0.970958	0	-0.263342	-0.635316	5.6689	0.32944	0	0	0	0	0	0	0	0	0
0.31	-250.563	1298.03	66.7286	0.963243	0	-0.262634	-0.70633	3.65912	0.188106	0	0	0	0	0	0	0	0	0
0.32	-301.168	1235.33	-26.2961	0.941229	0	-0.259597	-0.047418	0.1945	-0.00414025	0	0	0	0	0	0	0	0	0
0.33	-279.151	1300.05	-84.5953	0.901285	0	-0.254684	0.557774	-2.59764	0.169031	0	0	0	0	0	0	0	0	0
0.34	-212.586	1414.4	-77.6111	0.854214	0	-0.250093	0.586959	-3.9052	0.214287	0	0	0	0	0	0	0	0	0
0.35	-134.684	1489.29	-75.1869	0.811078	0	-0.247281	0.381971	-4.2237	0.213234	0	0	0	0	0	0	0	0	0
0.36	-63.0583	1500.71	-95.9542	0.771892	0	-0.24621	0.182327	-4.33916	0.277442	0	0	0	0	0	0	0	0	0
0.37	1.92097	1471.01	-95.2445	0.731642	0	-0.246281	-0.00569947	-4.36446	0.282588	0	0	0	0	0	0	0	0	0
0.38	69.8281	1415.67	-67.0086	0.686695	0	-0.24709	-0.19874	-4.02917	0.190715	0	0	0	0	0	0	0	0	0
0.39	145.418	1332.37	-38.4069	0.637276	0	-0.248391	-0.366416	-3.35724	0.0967755	0	0	0	0	0	0	0	0	0
0.4	216.549	1219.65	-14.1201	0.587059	0	-0.249849	-0.487806	-2.74744	0.0318076	0	0	0	0	0	0	0	0	0
0.41	268.336	1073.59	9.71214	0.54014	0	-0.251045	-0.620354	-2.48198	-0.0224531	0	0	0	0	0	0	0	0	0
0.42	288.868	888.087	29.8457	0.498093	0	-0.251575	-0.774763	-2.38191	-0.0800481	0	0	0	0	0	0	0	0	0
0.43	266.055	668.956	42.5402	0.458987	0	-0.250941	-0.79333	-1.99471	-0.126847	0	0	0	0	0	0	0	0	0
0.44	203.925	444.293	40.5534	0.416594	0	-0.248072	-0.47315	-1.03086	-0.0940928	0	0	0	0	0	0	0	0	0
0.45	131.824	252.765	22.746	0.355447	0	-0.239601	0.211442	0.405429	0.036484	0	0	0	0	0	0	0	0	0
0.46	73.7066	119.038	4.70617	0.226619	0	-0.211265	1.08252	1.74831	0.0691191	0	0	0	0	0	0	0	0	0
0.47	33.3962	47.0204	-0.124108	-0.162783	0	-0.0270581	1.62068	2.28185	-0.00602284	0	0	0	0	0	0	0	0	0
0.48	9.18677	20.4849	1.51999	-0.00166608	0	-0.00097578	1.62915e-18	3.63273e-18	2.6955e-19	0	0	0	0	0	0	0	0	0
0.49	-2.78694	11.6243	-0.306551	-0.00166607	0	-0.000975843	-0	0	-0	0	0	0	0	0	0	0	0	0
0.5	0	0	0	0	0	0	0	0	0	0	0	0	0	0	0	0	0	0
0.51	0	0	0	0	0	0	0	0	0	0	0	0	0	0	0	0	0	0
0.52	0	0	0	0	0	0	0	0	0	0	0	0	0	0	0	0	0	0
0.53	-2.53422	18.3715	-3.66109	-0.00166609	0	-0.000975913	-0	0	-0	0	0	0	0	0	0	0	0	0
0.54	-11.5163	66.4383	-8.90944	1.7285	0	-0.108897	-0.32723	1.88781	-0.253157	0	0	0	0	0	0	0	0	0
0.55	-30.2596	240.013	-14.1426	1.01808	0	-0.326503	0.135837	-1.07743	0.0634868	0	0	0	0	0	0	0	0	0
0.56	-60.6829	637.122	-12.8256	1.02648	0	-0.319476	0.292949	-3.07573	0.0619159	0	0	0	0	0	0	0	0	0
0.57	-102.021	1117.61	22.9868	1.02691	0	-0.31651	0.416505	-4.56271	-0.093845	0	0	0	0	0	0	0	0	0
0.58	-153.518	1310.22	53.4278	1.02388	0	-0.315535	0.776528	-6.62738	-0.270249	0	0	0	0	0	0	0	0	0
0.59	-203.973	1192.25	-20.5821	1.01437	0	-0.316784	1.48375	-8.6727	0.14972	0	0	0	0	0	0	0	0	0
0.6	-240.909	1066.78	-111.205	0.991096	0	-0.320509	2.03981	-9.03256	0.941591	0	0	0	0	0	0	0	0	0
0.61	-247.37	1081.84	-41.7759	0.950614	0	-0.325335	1.79914	-7.86833	0.30384	0	0	0	0	0	0	0	0	0
0.62	-206.817	1189.13	96.754	0.901995	0	-0.328509	1.04075	-5.98393	-0.486886	0	0	0	0	0	0	0	0	0
0.63	-136.408	1284.09	105.191	0.859583	0	-0.330019	0.456421	-4.29657	-0.351969	0	0	0	0	0	0	0	0	0
0.64	-78.5492	1324.26	26.1726	0.825879	0	-0.331126	0.164497	-2.77324	-0.0548103	0	0	0	0	0	0	0	0	0
0.65	-45.6364	1333.76	14.8068	0.795556	0	-0.33198	0.0415902	-1.2155	-0.013494	0	0	0	0	0	0	0	0	0
0.66	-16.772	1332.76	56.9014	0.76357	0	-0.332505	-0.00047038	0.0373779	0.00159584	0	0	0	0	0	0	0	0	0
0.67	20.0518	1312.44	55.7287	0.727765	0	-0.332831	0.00775588	0.507642	0.0215555	0	0	0	0	0	0	0	0	0
0.68	61.9838	1265.45	22.0004	0.688343	0	-0.332828	0.000618778	0.0126329	0.000219628	0	0	0	0	0	0	0	0	0
